<svg xmlns="http://www.w3.org/2000/svg" xmlns:xlink="http://www.w3.org/1999/xlink"><defs><symbol viewBox="0 0 16 17" id="calendar"><g fill="none" fill-rule="evenodd" stroke="currentColor"><rect width="15" height="15" x=".5" y="1.5" rx="2" /><path stroke-linecap="square" d="M.5 5.5h15" /><path stroke-linecap="round" d="M12.5 2.5v-2M3.5 2.5v-2" /></g></symbol><symbol viewBox="0 0 8 12" id="chevron"><path fill="currentColor" fill-rule="evenodd" d="m.424 1.063.639-.639a.6.6 0 0 1 .848 0l5.152 5.152a.6.6 0 0 1 0 .848L1.91 11.576a.6.6 0 0 1-.848 0l-.639-.639a.6.6 0 0 1 0-.848L4.512 6 .424 1.911a.6.6 0 0 1 0-.848" /></symbol></defs></svg>